<svg xmlns="http://www.w3.org/2000/svg" xmlns:xlink="http://www.w3.org/1999/xlink" width="500" zoomAndPan="magnify" viewBox="0 0 375 374.999991" height="500" preserveAspectRatio="xMidYMid meet" version="1.0"><defs><clipPath id="eaad119517"><path d="M 46 21 L 328.75 21 L 328.75 354.792969 L 46 354.792969 Z M 46 21 " clip-rule="nonzero"/></clipPath><clipPath id="efbe601295"><path d="M 159 258 L 205 258 L 205 307 L 159 307 Z M 159 258 " clip-rule="nonzero"/></clipPath><clipPath id="6691467a78"><path d="M 186.78125 212.367188 L 251.339844 294.222656 L 188.328125 343.917969 L 123.769531 262.0625 Z M 186.78125 212.367188 " clip-rule="nonzero"/></clipPath><clipPath id="04d849d240"><path d="M 186.78125 212.367188 L 251.339844 294.222656 L 188.328125 343.917969 L 123.769531 262.0625 Z M 186.78125 212.367188 " clip-rule="nonzero"/></clipPath><clipPath id="01d2aa8c10"><path d="M 201 289 L 228 289 L 228 302 L 201 302 Z M 201 289 " clip-rule="nonzero"/></clipPath><clipPath id="9209db5638"><path d="M 186.78125 212.367188 L 251.339844 294.222656 L 188.328125 343.917969 L 123.769531 262.0625 Z M 186.78125 212.367188 " clip-rule="nonzero"/></clipPath><clipPath id="0e654f1679"><path d="M 186.78125 212.367188 L 251.339844 294.222656 L 188.328125 343.917969 L 123.769531 262.0625 Z M 186.78125 212.367188 " clip-rule="nonzero"/></clipPath><clipPath id="bceaf5847e"><path d="M 223 294 L 238 294 L 238 309 L 223 309 Z M 223 294 " clip-rule="nonzero"/></clipPath><clipPath id="ea92457ba5"><path d="M 186.78125 212.367188 L 251.339844 294.222656 L 188.328125 343.917969 L 123.769531 262.0625 Z M 186.78125 212.367188 " clip-rule="nonzero"/></clipPath><clipPath id="4a0fb1a674"><path d="M 186.78125 212.367188 L 251.339844 294.222656 L 188.328125 343.917969 L 123.769531 262.0625 Z M 186.78125 212.367188 " clip-rule="nonzero"/></clipPath><clipPath id="7e778201c2"><path d="M 181 303 L 187 303 L 187 322 L 181 322 Z M 181 303 " clip-rule="nonzero"/></clipPath><clipPath id="4bdbfb9089"><path d="M 186.78125 212.367188 L 251.339844 294.222656 L 188.328125 343.917969 L 123.769531 262.0625 Z M 186.78125 212.367188 " clip-rule="nonzero"/></clipPath><clipPath id="dc992a9463"><path d="M 186.78125 212.367188 L 251.339844 294.222656 L 188.328125 343.917969 L 123.769531 262.0625 Z M 186.78125 212.367188 " clip-rule="nonzero"/></clipPath><clipPath id="1efaaa4d9b"><path d="M 176 318 L 190 318 L 190 332 L 176 332 Z M 176 318 " clip-rule="nonzero"/></clipPath><clipPath id="3399dfc70f"><path d="M 186.78125 212.367188 L 251.339844 294.222656 L 188.328125 343.917969 L 123.769531 262.0625 Z M 186.78125 212.367188 " clip-rule="nonzero"/></clipPath><clipPath id="a879edf157"><path d="M 186.78125 212.367188 L 251.339844 294.222656 L 188.328125 343.917969 L 123.769531 262.0625 Z M 186.78125 212.367188 " clip-rule="nonzero"/></clipPath><clipPath id="c59e23b04b"><path d="M 198 259 L 211 259 L 211 270 L 198 270 Z M 198 259 " clip-rule="nonzero"/></clipPath><clipPath id="d52742dbe8"><path d="M 186.78125 212.367188 L 251.339844 294.222656 L 188.328125 343.917969 L 123.769531 262.0625 Z M 186.78125 212.367188 " clip-rule="nonzero"/></clipPath><clipPath id="a8528af1cc"><path d="M 186.78125 212.367188 L 251.339844 294.222656 L 188.328125 343.917969 L 123.769531 262.0625 Z M 186.78125 212.367188 " clip-rule="nonzero"/></clipPath><clipPath id="c4c5b9c3e6"><path d="M 206 250 L 221 250 L 221 265 L 206 265 Z M 206 250 " clip-rule="nonzero"/></clipPath><clipPath id="07efe28783"><path d="M 186.78125 212.367188 L 251.339844 294.222656 L 188.328125 343.917969 L 123.769531 262.0625 Z M 186.78125 212.367188 " clip-rule="nonzero"/></clipPath><clipPath id="1e7cec68e6"><path d="M 186.78125 212.367188 L 251.339844 294.222656 L 188.328125 343.917969 L 123.769531 262.0625 Z M 186.78125 212.367188 " clip-rule="nonzero"/></clipPath><clipPath id="dc88a89dd8"><path d="M 136 263 L 163 263 L 163 276 L 136 276 Z M 136 263 " clip-rule="nonzero"/></clipPath><clipPath id="dd089c5d82"><path d="M 186.78125 212.367188 L 251.339844 294.222656 L 188.328125 343.917969 L 123.769531 262.0625 Z M 186.78125 212.367188 " clip-rule="nonzero"/></clipPath><clipPath id="94571ac975"><path d="M 186.78125 212.367188 L 251.339844 294.222656 L 188.328125 343.917969 L 123.769531 262.0625 Z M 186.78125 212.367188 " clip-rule="nonzero"/></clipPath><clipPath id="ce50bf3133"><path d="M 126 256 L 141 256 L 141 270 L 126 270 Z M 126 256 " clip-rule="nonzero"/></clipPath><clipPath id="64f3010679"><path d="M 186.78125 212.367188 L 251.339844 294.222656 L 188.328125 343.917969 L 123.769531 262.0625 Z M 186.78125 212.367188 " clip-rule="nonzero"/></clipPath><clipPath id="7500283c0f"><path d="M 186.78125 212.367188 L 251.339844 294.222656 L 188.328125 343.917969 L 123.769531 262.0625 Z M 186.78125 212.367188 " clip-rule="nonzero"/></clipPath></defs><g clip-path="url(#eaad119517)"><path fill="#d9d9d9" d="M 328.960938 144.621094 C 325.375 116.917969 313.277344 87.566406 295.773438 64.09375 C 276.695312 38.511719 253.832031 23.488281 231.390625 21.792969 C 212.953125 20.402344 203.347656 28.671875 196.335938 34.714844 C 192.835938 37.726562 190.082031 40.105469 187.613281 40.046875 C 187.542969 40.046875 187.472656 40.046875 187.398438 40.046875 C 184.929688 40.113281 182.179688 37.726562 178.679688 34.714844 C 171.664062 28.671875 162.054688 20.394531 143.605469 21.792969 C 121.171875 23.488281 98.308594 38.511719 79.226562 64.09375 C 61.71875 87.570312 49.621094 116.921875 46.035156 144.621094 C 45.984375 145.011719 45.984375 145.402344 46.035156 145.789062 C 50.742188 182.035156 65.855469 213.078125 89.765625 235.679688 C 91.675781 252.257812 95.679688 268.316406 101.777344 283.847656 C 119.570312 328.867188 150.4375 354.589844 186.578125 354.589844 C 186.886719 354.589844 187.199219 354.589844 187.507812 354.582031 C 187.8125 354.578125 188.125 354.589844 188.433594 354.589844 C 224.5625 354.589844 255.425781 328.867188 273.214844 283.859375 C 279.316406 268.320312 283.320312 252.257812 285.230469 235.675781 C 309.148438 213.074219 324.265625 182.019531 328.957031 145.789062 C 329.007812 145.398438 329.007812 145.007812 328.960938 144.621094 Z M 263.515625 145.75 C 252.609375 135.78125 238.886719 129.644531 224.867188 128.46875 C 221.554688 128.164062 218.246094 128.167969 214.933594 128.480469 C 211.625 128.792969 208.371094 129.410156 205.175781 130.328125 C 201.980469 131.25 198.894531 132.457031 195.925781 133.953125 C 192.957031 135.445312 190.148438 137.203125 187.507812 139.222656 C 184.863281 137.203125 182.054688 135.445312 179.085938 133.953125 C 176.113281 132.457031 173.03125 131.25 169.832031 130.328125 C 166.636719 129.410156 163.382812 128.792969 160.070312 128.480469 C 156.761719 128.167969 153.449219 128.164062 150.136719 128.46875 C 136.113281 129.644531 122.382812 135.785156 111.480469 145.75 C 101.460938 154.894531 94.410156 169.417969 90.960938 187.601562 C 84.050781 182.101562 77.695312 176.019531 71.898438 169.351562 C 66.105469 162.683594 60.964844 155.546875 56.476562 147.9375 C 56.421875 147.84375 56.363281 147.75 56.300781 147.664062 C 56.367188 147.566406 56.433594 147.46875 56.496094 147.363281 C 60.5625 140.515625 65.183594 134.066406 70.363281 128.015625 C 75.542969 121.96875 81.203125 116.410156 87.34375 111.339844 C 92.691406 113.515625 101.527344 114.90625 108.335938 114.90625 C 110.09375 114.921875 111.84375 114.800781 113.582031 114.542969 C 114.917969 114.320312 116.167969 113.859375 117.328125 113.15625 C 118.175781 114.125 119.179688 114.890625 120.328125 115.464844 C 121.480469 116.035156 122.699219 116.367188 123.980469 116.460938 L 158.542969 118.488281 C 158.707031 118.496094 158.867188 118.5 159.035156 118.5 C 160.046875 118.492188 161.03125 118.3125 161.984375 117.964844 C 162.9375 117.617188 163.804688 117.117188 164.585938 116.472656 C 165.382812 117.117188 166.265625 117.613281 167.230469 117.960938 C 168.195312 118.308594 169.191406 118.488281 170.21875 118.496094 L 204.78125 118.496094 C 205.808594 118.488281 206.804688 118.308594 207.773438 117.960938 C 208.738281 117.617188 209.621094 117.117188 210.417969 116.472656 C 211.199219 117.121094 212.066406 117.617188 213.015625 117.964844 C 213.96875 118.316406 214.953125 118.492188 215.964844 118.5 C 216.128906 118.5 216.289062 118.496094 216.457031 118.488281 L 251.019531 116.460938 C 252.296875 116.367188 253.511719 116.039062 254.664062 115.46875 C 255.8125 114.902344 256.8125 114.136719 257.664062 113.179688 C 258.832031 113.867188 260.082031 114.324219 261.421875 114.542969 C 263.203125 114.8125 264.996094 114.941406 266.800781 114.921875 C 273.558594 114.921875 282.007812 113.53125 287.222656 111.539062 C 293.46875 116.542969 299.21875 122.058594 304.480469 128.085938 C 309.742188 134.113281 314.429688 140.558594 318.542969 147.421875 C 318.589844 147.503906 318.644531 147.585938 318.699219 147.664062 C 314.199219 155.328125 309.035156 162.519531 303.210938 169.230469 C 297.382812 175.945312 290.992188 182.066406 284.039062 187.601562 C 280.585938 169.421875 273.53125 154.898438 263.515625 145.75 Z M 159.96875 79.167969 L 159.96875 106.257812 C 160.039062 107.449219 159.675781 108.492188 158.878906 109.386719 L 124.511719 107.371094 C 124.1875 107.351562 123.101562 106.335938 123.101562 104.230469 L 123.101562 89.671875 C 134.960938 84.65625 147.25 81.15625 159.96875 79.167969 Z M 261.019531 94.644531 C 266.878906 97.613281 272.523438 100.945312 277.949219 104.648438 C 273.046875 105.605469 266.90625 106.222656 262.902344 105.558594 C 261.964844 105.402344 261.015625 104.257812 261.015625 102.367188 Z M 251.917969 104.230469 C 251.917969 106.21875 250.902344 107.347656 250.484375 107.375 L 216.125 109.390625 C 215.335938 108.492188 214.980469 107.449219 215.046875 106.257812 L 215.046875 79.550781 C 227.765625 81.707031 240.050781 85.320312 251.914062 90.390625 Z M 205.941406 106.257812 C 205.941406 108.101562 205.097656 109.21875 204.726562 109.394531 L 170.273438 109.394531 C 169.90625 109.214844 169.074219 108.09375 169.074219 106.257812 L 169.074219 77.988281 C 174.757812 77.410156 180.457031 77.121094 186.167969 77.117188 L 186.277344 77.117188 C 192.851562 77.121094 199.40625 77.496094 205.941406 78.25 Z M 114 102.371094 C 114 104.261719 113.039062 105.40625 112.101562 105.5625 C 107.933594 106.246094 101.347656 105.523438 96.335938 104.492188 C 101.972656 100.546875 107.859375 97.019531 114 93.914062 Z M 144.292969 30.871094 C 158.972656 29.769531 166.289062 36.058594 172.738281 41.617188 C 177.296875 45.539062 181.585938 49.257812 187.507812 49.152344 C 193.398438 49.269531 197.71875 45.539062 202.277344 41.613281 C 208.726562 36.058594 216.035156 29.769531 230.703125 30.871094 C 268.894531 33.761719 304.402344 81.554688 316.515625 128.351562 C 309.03125 118.757812 300.488281 110.226562 290.882812 102.757812 C 290.757812 102.648438 290.628906 102.546875 290.492188 102.449219 C 282.816406 96.515625 274.660156 91.339844 266.019531 86.921875 C 241.878906 74.550781 214.308594 68.015625 186.273438 68.015625 L 186.164062 68.015625 C 161.363281 68.027344 137.824219 73.082031 116.820312 82.46875 C 116.761719 82.492188 116.707031 82.519531 116.648438 82.546875 C 105.125 87.699219 94.398438 94.167969 84.464844 101.957031 C 84.09375 102.171875 83.761719 102.433594 83.464844 102.746094 C 74.128906 110.203125 65.816406 118.671875 58.53125 128.144531 C 70.695312 81.414062 106.15625 33.757812 144.292969 30.871094 Z M 60.296875 169.59375 C 68.742188 180.335938 78.457031 189.769531 89.441406 197.902344 C 89.148438 200.582031 88.929688 203.320312 88.777344 206.121094 C 88.511719 211.183594 88.488281 216.332031 88.683594 221.523438 C 75.742188 207.023438 66.15625 189.457031 60.296875 169.59375 Z M 264.75 280.515625 C 248.261719 322.21875 220.136719 345.90625 187.566406 345.476562 L 187.449219 345.476562 C 187.164062 345.480469 186.878906 345.484375 186.597656 345.484375 C 154.386719 345.484375 126.589844 321.847656 110.246094 280.5 C 99.230469 252.632812 95.527344 222.109375 98.667969 196.980469 C 98.773438 196.585938 98.824219 196.183594 98.824219 195.777344 C 101.332031 177.125 107.667969 161.5625 117.621094 152.472656 C 127.648438 143.308594 141.316406 137.261719 155.070312 137.261719 C 157.597656 137.246094 160.105469 137.449219 162.59375 137.875 C 165.082031 138.296875 167.515625 138.933594 169.890625 139.785156 C 172.269531 140.636719 174.554688 141.683594 176.75 142.9375 C 178.941406 144.1875 181.011719 145.617188 182.953125 147.230469 L 182.953125 241.421875 C 182.953125 241.722656 182.984375 242.019531 183.042969 242.3125 C 183.101562 242.605469 183.1875 242.890625 183.300781 243.164062 C 183.414062 243.441406 183.554688 243.703125 183.722656 243.953125 C 183.886719 244.199219 184.074219 244.429688 184.289062 244.640625 C 184.5 244.855469 184.730469 245.042969 184.976562 245.207031 C 185.226562 245.375 185.488281 245.515625 185.765625 245.628906 C 186.039062 245.742188 186.324219 245.828125 186.617188 245.886719 C 186.910156 245.945312 187.207031 245.976562 187.507812 245.976562 C 187.804688 245.976562 188.101562 245.945312 188.394531 245.886719 C 188.6875 245.828125 188.972656 245.742188 189.246094 245.628906 C 189.523438 245.515625 189.785156 245.375 190.035156 245.207031 C 190.285156 245.042969 190.511719 244.855469 190.726562 244.640625 C 190.9375 244.429688 191.125 244.199219 191.289062 243.953125 C 191.457031 243.703125 191.597656 243.441406 191.710938 243.164062 C 191.824219 242.890625 191.914062 242.605469 191.96875 242.3125 C 192.027344 242.019531 192.058594 241.722656 192.058594 241.421875 L 192.058594 147.242188 C 212.683594 130.328125 240.304688 136.871094 257.375 152.476562 C 267.332031 161.566406 273.660156 177.121094 276.171875 195.773438 C 276.167969 196.183594 276.21875 196.585938 276.328125 196.984375 C 279.46875 222.113281 275.761719 252.640625 264.75 280.515625 Z M 286.3125 221.527344 C 286.507812 216.335938 286.484375 211.191406 286.21875 206.128906 C 286.070312 203.324219 285.851562 200.582031 285.554688 197.90625 C 296.539062 189.773438 306.253906 180.339844 314.707031 169.601562 C 308.847656 189.457031 299.257812 207.023438 286.3125 221.523438 Z M 286.3125 221.527344 " fill-opacity="1" fill-rule="nonzero"/></g><g clip-path="url(#efbe601295)"><g clip-path="url(#6691467a78)"><g clip-path="url(#04d849d240)"><path fill="#d9d9d9" d="M 201.519531 268.230469 C 202.605469 275.707031 203.6875 283.175781 204.773438 290.65625 L 204.78125 290.65625 C 204.867188 291.253906 204.621094 291.820312 204.179688 292.167969 L 204.175781 292.171875 L 195.238281 299.21875 L 186.292969 306.273438 C 185.777344 306.679688 185.089844 306.726562 184.539062 306.441406 C 177.53125 303.648438 170.539062 300.863281 163.527344 298.066406 L 163.523438 298.070312 C 162.925781 297.832031 162.550781 297.277344 162.503906 296.675781 C 161.417969 289.199219 160.339844 281.730469 159.253906 274.253906 L 159.246094 274.25 C 159.160156 273.65625 159.40625 273.089844 159.847656 272.742188 L 159.851562 272.738281 L 168.789062 265.6875 L 177.734375 258.632812 C 178.25 258.226562 178.9375 258.183594 179.488281 258.464844 C 186.496094 261.261719 193.488281 264.046875 200.5 266.839844 L 200.5 266.835938 C 201.097656 267.074219 201.476562 267.628906 201.519531 268.230469 Z M 198.429688 269.507812 C 191.953125 266.925781 185.492188 264.34375 179.015625 261.761719 L 170.804688 268.238281 L 162.589844 274.71875 C 163.59375 281.613281 164.59375 288.503906 165.597656 295.402344 C 172.074219 297.984375 178.535156 300.5625 185.011719 303.144531 L 193.222656 296.667969 L 201.4375 290.191406 C 200.433594 283.292969 199.429688 276.402344 198.429688 269.507812 Z M 198.429688 269.507812 " fill-opacity="1" fill-rule="nonzero"/></g></g></g><g clip-path="url(#01d2aa8c10)"><g clip-path="url(#9209db5638)"><g clip-path="url(#0e654f1679)"><path fill="#d9d9d9" d="M 203.777344 289.390625 C 202.945312 289.054688 202.003906 289.460938 201.671875 290.289062 C 201.339844 291.117188 201.742188 292.058594 202.570312 292.394531 L 225 301.335938 C 225.832031 301.667969 226.773438 301.265625 227.105469 300.4375 C 227.4375 299.609375 227.035156 298.664062 226.207031 298.332031 Z M 203.777344 289.390625 " fill-opacity="1" fill-rule="nonzero"/></g></g></g><g clip-path="url(#bceaf5847e)"><g clip-path="url(#ea92457ba5)"><g clip-path="url(#4a0fb1a674)"><path fill="#d9d9d9" d="M 235.832031 297.527344 C 237.003906 299.011719 237.460938 300.832031 237.253906 302.570312 C 237.050781 304.3125 236.179688 305.972656 234.695312 307.144531 C 233.210938 308.316406 231.390625 308.773438 229.652344 308.570312 C 227.910156 308.363281 226.25 307.492188 225.078125 306.007812 C 223.90625 304.523438 223.449219 302.707031 223.65625 300.964844 C 223.859375 299.226562 224.730469 297.5625 226.214844 296.390625 C 227.699219 295.222656 229.519531 294.761719 231.257812 294.96875 C 233 295.175781 234.660156 296.042969 235.832031 297.527344 Z M 234.027344 302.191406 C 234.136719 301.277344 233.894531 300.320312 233.277344 299.542969 C 232.664062 298.761719 231.789062 298.304688 230.878906 298.195312 C 229.964844 298.089844 229.007812 298.328125 228.226562 298.945312 C 227.449219 299.558594 226.992188 300.433594 226.882812 301.347656 C 226.773438 302.261719 227.015625 303.214844 227.632812 303.996094 C 228.246094 304.777344 229.121094 305.234375 230.03125 305.339844 C 230.945312 305.449219 231.902344 305.207031 232.683594 304.59375 C 233.460938 303.976562 233.917969 303.105469 234.027344 302.191406 Z M 234.027344 302.191406 " fill-opacity="1" fill-rule="nonzero"/></g></g></g><g clip-path="url(#7e778201c2)"><g clip-path="url(#4bdbfb9089)"><g clip-path="url(#dc992a9463)"><path fill="#d9d9d9" d="M 186.902344 305.1875 C 187.007812 304.296875 186.367188 303.488281 185.476562 303.382812 C 184.585938 303.277344 183.777344 303.914062 183.671875 304.808594 L 181.921875 319.628906 C 181.816406 320.519531 182.453125 321.328125 183.34375 321.433594 C 184.238281 321.539062 185.042969 320.902344 185.148438 320.011719 Z M 186.902344 305.1875 " fill-opacity="1" fill-rule="nonzero"/></g></g></g><g clip-path="url(#1efaaa4d9b)"><g clip-path="url(#3399dfc70f)"><g clip-path="url(#a879edf157)"><path fill="#d9d9d9" d="M 179.648438 326.496094 C 180.457031 328.28125 182.542969 329.085938 184.34375 328.3125 C 186.171875 327.527344 187.015625 325.417969 186.230469 323.585938 C 185.457031 321.785156 183.386719 320.933594 181.574219 321.671875 C 181.527344 321.691406 181.480469 321.714844 181.433594 321.730469 C 180.550781 322.132812 179.90625 322.84375 179.574219 323.675781 C 179.242188 324.503906 179.222656 325.460938 179.585938 326.355469 C 179.609375 326.402344 179.628906 326.449219 179.648438 326.496094 Z M 176.671875 327.800781 C 176.660156 327.769531 176.644531 327.738281 176.632812 327.710938 C 175.890625 325.976562 175.921875 324.101562 176.570312 322.46875 C 177.207031 320.871094 178.441406 319.511719 180.125 318.757812 C 180.15625 318.742188 180.1875 318.730469 180.21875 318.714844 L 180.21875 318.71875 C 183.691406 317.226562 187.71875 318.832031 189.210938 322.300781 C 190.703125 325.773438 189.097656 329.800781 185.628906 331.296875 C 182.191406 332.773438 178.199219 331.214844 176.671875 327.800781 Z M 176.671875 327.800781 " fill-opacity="1" fill-rule="nonzero"/></g></g></g><g clip-path="url(#c59e23b04b)"><g clip-path="url(#d52742dbe8)"><g clip-path="url(#a8528af1cc)"><path fill="#d9d9d9" d="M 198.894531 267.078125 C 198.195312 267.628906 198.074219 268.648438 198.628906 269.351562 C 199.179688 270.050781 200.199219 270.171875 200.902344 269.621094 L 210.382812 262.140625 C 211.082031 261.589844 211.203125 260.570312 210.648438 259.867188 C 210.097656 259.167969 209.078125 259.046875 208.375 259.601562 Z M 198.894531 267.078125 " fill-opacity="1" fill-rule="nonzero"/></g></g></g><g clip-path="url(#c4c5b9c3e6)"><g clip-path="url(#07efe28783)"><g clip-path="url(#1e7cec68e6)"><path fill="#d9d9d9" d="M 216.785156 256.21875 C 216.421875 255.367188 215.734375 254.65625 214.8125 254.289062 C 213.894531 253.921875 212.910156 253.964844 212.058594 254.332031 C 210.234375 255.113281 209.386719 257.230469 210.171875 259.058594 C 210.957031 260.882812 213.074219 261.730469 214.898438 260.945312 C 216.726562 260.160156 217.574219 258.042969 216.785156 256.21875 Z M 219.769531 254.933594 C 221.257812 258.398438 219.65625 262.433594 216.183594 263.925781 C 212.71875 265.417969 208.683594 263.8125 207.191406 260.339844 C 205.699219 256.871094 207.304688 252.839844 210.777344 251.347656 C 212.382812 250.660156 214.253906 250.582031 216.015625 251.285156 C 217.773438 251.984375 219.078125 253.328125 219.769531 254.933594 Z M 219.769531 254.933594 " fill-opacity="1" fill-rule="nonzero"/></g></g></g><g clip-path="url(#dc88a89dd8)"><g clip-path="url(#dd089c5d82)"><g clip-path="url(#94571ac975)"><path fill="#d9d9d9" d="M 160.25 275.519531 C 161.082031 275.851562 162.023438 275.449219 162.355469 274.621094 C 162.6875 273.789062 162.285156 272.847656 161.457031 272.515625 L 139.027344 263.570312 C 138.195312 263.238281 137.253906 263.640625 136.921875 264.472656 C 136.589844 265.300781 136.992188 266.242188 137.820312 266.574219 Z M 160.25 275.519531 " fill-opacity="1" fill-rule="nonzero"/></g></g></g><g clip-path="url(#ce50bf3133)"><g clip-path="url(#64f3010679)"><g clip-path="url(#7500283c0f)"><path fill="#d9d9d9" d="M 128.195312 267.378906 C 127.023438 265.894531 126.566406 264.074219 126.773438 262.335938 C 126.976562 260.59375 127.847656 258.933594 129.332031 257.761719 C 130.816406 256.59375 132.636719 256.132812 134.375 256.339844 C 136.117188 256.546875 137.777344 257.414062 138.949219 258.898438 C 140.117188 260.382812 140.578125 262.203125 140.371094 263.941406 C 140.167969 265.683594 139.296875 267.34375 137.8125 268.515625 C 136.328125 269.6875 134.507812 270.144531 132.769531 269.9375 C 131.027344 269.734375 129.367188 268.863281 128.195312 267.378906 Z M 130 262.71875 C 129.890625 263.628906 130.132812 264.585938 130.75 265.367188 C 131.363281 266.144531 132.238281 266.601562 133.148438 266.710938 C 134.0625 266.820312 135.019531 266.578125 135.800781 265.964844 C 136.578125 265.347656 137.035156 264.476562 137.144531 263.5625 C 137.25 262.648438 137.011719 261.691406 136.394531 260.910156 C 135.78125 260.132812 134.90625 259.675781 133.992188 259.566406 C 133.082031 259.460938 132.125 259.699219 131.34375 260.316406 C 130.566406 260.929688 130.109375 261.804688 130 262.71875 Z M 130 262.71875 " fill-opacity="1" fill-rule="nonzero"/></g></g></g></svg>