<svg xmlns="http://www.w3.org/2000/svg" xmlns:xlink="http://www.w3.org/1999/xlink" width="500" zoomAndPan="magnify" viewBox="0 0 375 374.999991" height="500" preserveAspectRatio="xMidYMid meet" version="1.0"><defs><g/></defs><g fill="#d9d9d9" fill-opacity="1"><g transform="translate(16.81731, 260.30438)"><g><path d="M 12.25 -50.484375 L 19.3125 -50.484375 C 22.300781 -50.484375 24.5625 -49.710938 26.09375 -48.171875 C 27.632812 -46.640625 28.40625 -44.382812 28.40625 -41.40625 L 28.40625 -34.703125 C 28.40625 -34.035156 28.066406 -33.703125 27.390625 -33.703125 L 20.828125 -33.703125 C 20.148438 -33.703125 19.8125 -34.035156 19.8125 -34.703125 L 19.8125 -39.625 C 19.8125 -41.3125 18.972656 -42.15625 17.296875 -42.15625 L 14.265625 -42.15625 C 12.578125 -42.15625 11.734375 -41.3125 11.734375 -39.625 L 11.734375 -30.921875 L 26.765625 -26 C 27.859375 -25.539062 28.40625 -24.765625 28.40625 -23.671875 L 28.40625 -9.09375 C 28.40625 -6.144531 27.632812 -3.890625 26.09375 -2.328125 C 24.5625 -0.773438 22.300781 0 19.3125 0 L 12.25 0 C 9.300781 0 7.046875 -0.773438 5.484375 -2.328125 C 3.929688 -3.890625 3.15625 -6.144531 3.15625 -9.09375 L 3.15625 -15.71875 C 3.15625 -16.382812 3.492188 -16.71875 4.171875 -16.71875 L 10.734375 -16.71875 C 11.398438 -16.71875 11.734375 -16.382812 11.734375 -15.71875 L 11.734375 -10.859375 C 11.734375 -9.171875 12.578125 -8.328125 14.265625 -8.328125 L 17.296875 -8.328125 C 18.972656 -8.328125 19.8125 -9.171875 19.8125 -10.859375 L 19.8125 -19.25 L 4.859375 -24.171875 C 3.722656 -24.546875 3.15625 -25.320312 3.15625 -26.5 L 3.15625 -41.40625 C 3.15625 -44.382812 3.929688 -46.640625 5.484375 -48.171875 C 7.046875 -49.710938 9.300781 -50.484375 12.25 -50.484375 Z M 12.25 -50.484375 "/></g></g></g><g fill="#d9d9d9" fill-opacity="1"><g transform="translate(48.365635, 260.30438)"><g><path d="M 28.34375 -49.484375 L 28.34375 -43.171875 C 28.34375 -42.453125 28.003906 -42.09375 27.328125 -42.09375 L 11.546875 -42.09375 L 11.546875 -29.46875 L 23.609375 -29.46875 C 24.273438 -29.46875 24.609375 -29.113281 24.609375 -28.40625 L 24.609375 -22.15625 C 24.609375 -21.4375 24.273438 -21.078125 23.609375 -21.078125 L 11.546875 -21.078125 L 11.546875 -8.328125 L 27.328125 -8.328125 C 28.003906 -8.328125 28.34375 -7.992188 28.34375 -7.328125 L 28.34375 -1.015625 C 28.34375 -0.335938 28.003906 0 27.328125 0 L 4.109375 0 C 3.472656 0 3.15625 -0.335938 3.15625 -1.015625 L 3.15625 -49.484375 C 3.15625 -50.148438 3.472656 -50.484375 4.109375 -50.484375 L 27.328125 -50.484375 C 28.003906 -50.484375 28.34375 -50.148438 28.34375 -49.484375 Z M 28.34375 -49.484375 "/></g></g></g><g fill="#d9d9d9" fill-opacity="1"><g transform="translate(79.85086, 260.30438)"><g><path d="M 22.53125 -50.484375 L 29.09375 -50.484375 C 29.769531 -50.484375 30.109375 -50.148438 30.109375 -49.484375 L 30.109375 -1.015625 C 30.109375 -0.335938 29.769531 0 29.09375 0 L 22.84375 0 C 22.257812 0 21.878906 -0.273438 21.703125 -0.828125 L 12.046875 -27.765625 L 11.734375 -27.765625 L 11.734375 -1.015625 C 11.734375 -0.335938 11.398438 0 10.734375 0 L 4.171875 0 C 3.492188 0 3.15625 -0.335938 3.15625 -1.015625 L 3.15625 -49.484375 C 3.15625 -50.148438 3.492188 -50.484375 4.171875 -50.484375 L 10.40625 -50.484375 C 11 -50.484375 11.378906 -50.210938 11.546875 -49.671875 L 21.140625 -22.84375 L 21.515625 -22.84375 L 21.515625 -49.484375 C 21.515625 -50.148438 21.851562 -50.484375 22.53125 -50.484375 Z M 22.53125 -50.484375 "/></g></g></g><g fill="#d9d9d9" fill-opacity="1"><g transform="translate(113.102798, 260.30438)"><g><path d="M 12.25 -50.484375 L 19.3125 -50.484375 C 22.300781 -50.484375 24.5625 -49.710938 26.09375 -48.171875 C 27.632812 -46.640625 28.40625 -44.382812 28.40625 -41.40625 L 28.40625 -34.703125 C 28.40625 -34.035156 28.066406 -33.703125 27.390625 -33.703125 L 20.828125 -33.703125 C 20.148438 -33.703125 19.8125 -34.035156 19.8125 -34.703125 L 19.8125 -39.625 C 19.8125 -41.3125 18.972656 -42.15625 17.296875 -42.15625 L 14.265625 -42.15625 C 12.578125 -42.15625 11.734375 -41.3125 11.734375 -39.625 L 11.734375 -30.921875 L 26.765625 -26 C 27.859375 -25.539062 28.40625 -24.765625 28.40625 -23.671875 L 28.40625 -9.09375 C 28.40625 -6.144531 27.632812 -3.890625 26.09375 -2.328125 C 24.5625 -0.773438 22.300781 0 19.3125 0 L 12.25 0 C 9.300781 0 7.046875 -0.773438 5.484375 -2.328125 C 3.929688 -3.890625 3.15625 -6.144531 3.15625 -9.09375 L 3.15625 -15.71875 C 3.15625 -16.382812 3.492188 -16.71875 4.171875 -16.71875 L 10.734375 -16.71875 C 11.398438 -16.71875 11.734375 -16.382812 11.734375 -15.71875 L 11.734375 -10.859375 C 11.734375 -9.171875 12.578125 -8.328125 14.265625 -8.328125 L 17.296875 -8.328125 C 18.972656 -8.328125 19.8125 -9.171875 19.8125 -10.859375 L 19.8125 -19.25 L 4.859375 -24.171875 C 3.722656 -24.546875 3.15625 -25.320312 3.15625 -26.5 L 3.15625 -41.40625 C 3.15625 -44.382812 3.929688 -46.640625 5.484375 -48.171875 C 7.046875 -49.710938 9.300781 -50.484375 12.25 -50.484375 Z M 12.25 -50.484375 "/></g></g></g><g fill="#d9d9d9" fill-opacity="1"><g transform="translate(144.651123, 260.30438)"><g><path d="M 3.15625 -9.09375 L 3.15625 -41.40625 C 3.15625 -44.382812 3.929688 -46.640625 5.484375 -48.171875 C 7.046875 -49.710938 9.300781 -50.484375 12.25 -50.484375 L 19.3125 -50.484375 C 22.300781 -50.484375 24.5625 -49.710938 26.09375 -48.171875 C 27.632812 -46.640625 28.40625 -44.382812 28.40625 -41.40625 L 28.40625 -9.09375 C 28.40625 -6.144531 27.632812 -3.890625 26.09375 -2.328125 C 24.5625 -0.773438 22.300781 0 19.3125 0 L 12.25 0 C 9.300781 0 7.046875 -0.773438 5.484375 -2.328125 C 3.929688 -3.890625 3.15625 -6.144531 3.15625 -9.09375 Z M 14.078125 -8.140625 L 17.734375 -8.140625 C 19.421875 -8.140625 20.265625 -8.984375 20.265625 -10.671875 L 20.265625 -39.828125 C 20.265625 -41.503906 19.421875 -42.34375 17.734375 -42.34375 L 14.078125 -42.34375 C 12.390625 -42.34375 11.546875 -41.503906 11.546875 -39.828125 L 11.546875 -10.671875 C 11.546875 -8.984375 12.390625 -8.140625 14.078125 -8.140625 Z M 14.078125 -8.140625 "/></g></g></g><g fill="#d9d9d9" fill-opacity="1"><g transform="translate(176.199449, 260.30438)"><g><path d="M 29.09375 -41.40625 L 29.09375 -26 C 29.09375 -21.789062 27.554688 -19.015625 24.484375 -17.671875 L 28.84375 -1.140625 C 29.050781 -0.378906 28.753906 0 27.953125 0 L 21.390625 0 C 20.804688 0 20.453125 -0.296875 20.328125 -0.890625 L 16.09375 -16.90625 L 11.734375 -16.90625 L 11.734375 -1.015625 C 11.734375 -0.335938 11.398438 0 10.734375 0 L 4.171875 0 C 3.492188 0 3.15625 -0.335938 3.15625 -1.015625 L 3.15625 -49.484375 C 3.15625 -50.148438 3.492188 -50.484375 4.171875 -50.484375 L 20 -50.484375 C 22.988281 -50.484375 25.25 -49.710938 26.78125 -48.171875 C 28.320312 -46.640625 29.09375 -44.382812 29.09375 -41.40625 Z M 11.734375 -25.25 L 17.984375 -25.25 C 19.671875 -25.25 20.515625 -26.085938 20.515625 -27.765625 L 20.515625 -39.625 C 20.515625 -41.3125 19.671875 -42.15625 17.984375 -42.15625 L 11.734375 -42.15625 Z M 11.734375 -25.25 "/></g></g></g><g fill="#d9d9d9" fill-opacity="1"><g transform="translate(208.441836, 260.30438)"><g><path d="M 25.75 -50.484375 L 32.0625 -50.484375 C 32.519531 -50.484375 32.851562 -50.359375 33.0625 -50.109375 C 33.28125 -49.859375 33.28125 -49.5 33.0625 -49.03125 L 21.515625 -20.953125 L 21.515625 -1.265625 C 21.515625 -0.421875 21.097656 0 20.265625 0 L 14.203125 0 C 13.359375 0 12.9375 -0.421875 12.9375 -1.265625 L 12.9375 -20.953125 L 1.390625 -49.03125 C 1.222656 -49.5 1.234375 -49.859375 1.421875 -50.109375 C 1.609375 -50.359375 1.929688 -50.484375 2.390625 -50.484375 L 8.703125 -50.484375 C 9.421875 -50.484375 9.90625 -50.148438 10.15625 -49.484375 L 17.234375 -31.359375 L 24.296875 -49.484375 C 24.546875 -50.148438 25.03125 -50.484375 25.75 -50.484375 Z M 25.75 -50.484375 "/></g></g></g><g fill="#d9d9d9" fill-opacity="1"><g transform="translate(242.892611, 260.30438)"><g/></g></g><g fill="#d9d9d9" fill-opacity="1"><g transform="translate(258.666782, 260.30438)"><g><path d="M 11.734375 -8.328125 L 11.734375 -49.484375 C 11.734375 -50.148438 11.398438 -50.484375 10.734375 -50.484375 L 4.171875 -50.484375 C 3.492188 -50.484375 3.15625 -50.148438 3.15625 -49.484375 L 3.15625 -1.015625 C 3.15625 -0.335938 3.492188 0 4.171875 0 L 26.765625 0 C 27.429688 0 27.765625 -0.335938 27.765625 -1.015625 L 27.765625 -7.328125 C 27.765625 -7.992188 27.429688 -8.328125 26.765625 -8.328125 Z M 11.734375 -8.328125 "/></g></g></g><g fill="#d9d9d9" fill-opacity="1"><g transform="translate(289.584131, 260.30438)"><g><path d="M 33.578125 0 L 26.890625 0 C 26.335938 0 26 -0.296875 25.875 -0.890625 L 24.109375 -10.09375 L 12.875 -10.09375 L 11.171875 -0.890625 C 11.046875 -0.296875 10.707031 0 10.15625 0 L 3.40625 0 C 2.644531 0 2.375 -0.359375 2.59375 -1.078125 L 13.0625 -49.609375 C 13.1875 -50.191406 13.546875 -50.484375 14.140625 -50.484375 L 22.90625 -50.484375 C 23.5 -50.484375 23.859375 -50.191406 23.984375 -49.609375 L 34.453125 -1.078125 C 34.578125 -0.359375 34.285156 0 33.578125 0 Z M 22.53125 -17.421875 L 18.484375 -39.4375 L 14.453125 -17.421875 Z M 22.53125 -17.421875 "/></g></g></g><g fill="#d9d9d9" fill-opacity="1"><g transform="translate(326.558766, 260.30438)"><g><path d="M 28.46875 -41.40625 L 28.46875 -29.78125 C 28.46875 -28.601562 28.085938 -27.613281 27.328125 -26.8125 C 26.566406 -26.019531 25.617188 -25.519531 24.484375 -25.3125 L 24.484375 -25.1875 C 25.617188 -25.007812 26.566406 -24.507812 27.328125 -23.6875 C 28.085938 -22.875 28.46875 -21.878906 28.46875 -20.703125 L 28.46875 -9.09375 C 28.46875 -6.144531 27.6875 -3.890625 26.125 -2.328125 C 24.570312 -0.773438 22.300781 0 19.3125 0 L 4.171875 0 C 3.492188 0 3.15625 -0.335938 3.15625 -1.015625 L 3.15625 -49.484375 C 3.15625 -50.148438 3.492188 -50.484375 4.171875 -50.484375 L 19.3125 -50.484375 C 22.300781 -50.484375 24.570312 -49.710938 26.125 -48.171875 C 27.6875 -46.640625 28.46875 -44.382812 28.46875 -41.40625 Z M 20.0625 -31.875 L 20.0625 -39.625 C 20.0625 -41.3125 19.222656 -42.15625 17.546875 -42.15625 L 11.796875 -42.15625 L 11.796875 -29.40625 L 17.546875 -29.40625 C 19.222656 -29.40625 20.0625 -30.226562 20.0625 -31.875 Z M 20.0625 -10.859375 L 20.0625 -18.546875 C 20.0625 -20.234375 19.222656 -21.078125 17.546875 -21.078125 L 11.796875 -21.078125 L 11.796875 -8.328125 L 17.546875 -8.328125 C 19.222656 -8.328125 20.0625 -9.171875 20.0625 -10.859375 Z M 20.0625 -10.859375 "/></g></g></g><g fill="#d9d9d9" fill-opacity="1"><g transform="translate(14.49146, 166.381292)"><g><path d="M 45.46875 -77.71875 L 58.28125 -77.71875 C 59.582031 -77.71875 60.234375 -77.066406 60.234375 -75.765625 L 60.234375 -1.9375 C 60.234375 -0.644531 59.582031 0 58.28125 0 L 49.25 0 C 47.957031 0 47.3125 -0.644531 47.3125 -1.9375 L 47.3125 -45.65625 L 46.625 -45.65625 L 37.015625 -1.75 C 36.753906 -0.582031 36.039062 0 34.875 0 L 30.109375 0 C 29.015625 0 28.300781 -0.582031 27.96875 -1.75 L 18.359375 -45.65625 L 17.671875 -45.65625 L 17.671875 -1.9375 C 17.671875 -0.644531 17.023438 0 15.734375 0 L 6.796875 0 C 5.503906 0 4.859375 -0.644531 4.859375 -1.9375 L 4.859375 -75.765625 C 4.859375 -77.066406 5.503906 -77.71875 6.796875 -77.71875 L 19.625 -77.71875 C 20.789062 -77.71875 21.503906 -77.132812 21.765625 -75.96875 L 32.546875 -27.59375 L 43.328125 -75.96875 C 43.648438 -77.132812 44.363281 -77.71875 45.46875 -77.71875 Z M 45.46875 -77.71875 "/></g></g></g><g fill="#d9d9d9" fill-opacity="1"><g transform="translate(79.571643, 166.381292)"><g><path d="M 51.671875 0 L 41.375 0 C 40.539062 0 40.023438 -0.453125 39.828125 -1.359375 L 37.109375 -15.546875 L 19.8125 -15.546875 L 17.1875 -1.359375 C 17 -0.453125 16.484375 0 15.640625 0 L 5.25 0 C 4.082031 0 3.660156 -0.550781 3.984375 -1.65625 L 20.109375 -76.359375 C 20.304688 -77.265625 20.859375 -77.71875 21.765625 -77.71875 L 35.265625 -77.71875 C 36.171875 -77.71875 36.71875 -77.265625 36.90625 -76.359375 L 53.03125 -1.65625 C 53.226562 -0.550781 52.773438 0 51.671875 0 Z M 34.671875 -26.8125 L 28.46875 -60.71875 L 22.25 -26.8125 Z M 34.671875 -26.8125 "/></g></g></g><g fill="#d9d9d9" fill-opacity="1"><g transform="translate(136.492525, 166.381292)"><g><path d="M 39.640625 -77.71875 L 49.34375 -77.71875 C 50.0625 -77.71875 50.582031 -77.519531 50.90625 -77.125 C 51.226562 -76.738281 51.226562 -76.191406 50.90625 -75.484375 L 33.125 -32.25 L 33.125 -1.9375 C 33.125 -0.644531 32.476562 0 31.1875 0 L 21.859375 0 C 20.554688 0 19.90625 -0.644531 19.90625 -1.9375 L 19.90625 -32.25 L 2.140625 -75.484375 C 1.878906 -76.191406 1.894531 -76.738281 2.1875 -77.125 C 2.476562 -77.519531 2.976562 -77.71875 3.6875 -77.71875 L 13.40625 -77.71875 C 14.507812 -77.71875 15.253906 -77.195312 15.640625 -76.15625 L 26.515625 -48.28125 L 37.40625 -76.15625 C 37.789062 -77.195312 38.535156 -77.71875 39.640625 -77.71875 Z M 39.640625 -77.71875 "/></g></g></g><g fill="#d9d9d9" fill-opacity="1"><g transform="translate(189.52803, 166.381292)"><g><path d="M 30.5 -45.265625 L 30.5 -76.15625 C 30.5 -77.195312 31.019531 -77.71875 32.0625 -77.71875 L 42.0625 -77.71875 C 43.164062 -77.71875 43.71875 -77.195312 43.71875 -76.15625 L 43.71875 -1.546875 C 43.71875 -0.515625 43.164062 0 42.0625 0 L 32.0625 0 C 31.019531 0 30.5 -0.515625 30.5 -1.546875 L 30.5 -32.4375 L 18.0625 -32.4375 L 18.0625 -1.546875 C 18.0625 -0.515625 17.546875 0 16.515625 0 L 6.515625 0 C 5.410156 0 4.859375 -0.515625 4.859375 -1.546875 L 4.859375 -76.15625 C 4.859375 -77.195312 5.410156 -77.71875 6.515625 -77.71875 L 16.515625 -77.71875 C 17.546875 -77.71875 18.0625 -77.195312 18.0625 -76.15625 L 18.0625 -45.265625 Z M 30.5 -45.265625 "/></g></g></g><g fill="#d9d9d9" fill-opacity="1"><g transform="translate(238.095343, 166.381292)"><g><path d="M 43.609375 -76.15625 L 43.609375 -66.4375 C 43.609375 -65.34375 43.09375 -64.796875 42.0625 -64.796875 L 17.78125 -64.796875 L 17.78125 -45.359375 L 36.328125 -45.359375 C 37.367188 -45.359375 37.890625 -44.8125 37.890625 -43.71875 L 37.890625 -34.09375 C 37.890625 -32.988281 37.367188 -32.4375 36.328125 -32.4375 L 17.78125 -32.4375 L 17.78125 -12.828125 L 42.0625 -12.828125 C 43.09375 -12.828125 43.609375 -12.304688 43.609375 -11.265625 L 43.609375 -1.546875 C 43.609375 -0.515625 43.09375 0 42.0625 0 L 6.3125 0 C 5.34375 0 4.859375 -0.515625 4.859375 -1.546875 L 4.859375 -76.15625 C 4.859375 -77.195312 5.34375 -77.71875 6.3125 -77.71875 L 42.0625 -77.71875 C 43.09375 -77.71875 43.609375 -77.195312 43.609375 -76.15625 Z M 43.609375 -76.15625 "/></g></g></g><g fill="#d9d9d9" fill-opacity="1"><g transform="translate(286.565513, 166.381292)"><g><path d="M 58 -77.71875 L 67.21875 -77.71875 C 68.582031 -77.71875 69.195312 -77.035156 69.0625 -75.671875 L 60.71875 -1.84375 C 60.644531 -0.613281 59.960938 0 58.671875 0 L 49.15625 0 C 48.050781 0 47.335938 -0.582031 47.015625 -1.75 L 36.90625 -45.65625 L 26.71875 -1.65625 C 26.394531 -0.550781 25.679688 0 24.578125 0 L 14.859375 0 C 13.566406 0 12.890625 -0.613281 12.828125 -1.84375 L 4.859375 -75.671875 C 4.722656 -77.035156 5.335938 -77.71875 6.703125 -77.71875 L 15.9375 -77.71875 C 17.164062 -77.71875 17.84375 -77.097656 17.96875 -75.859375 L 21.765625 -30.40625 L 22.25 -30.40625 L 31.859375 -75.96875 C 32.179688 -77.132812 32.894531 -77.71875 34 -77.71875 L 39.828125 -77.71875 C 40.992188 -77.71875 41.707031 -77.132812 41.96875 -75.96875 L 51.484375 -30.40625 L 51.96875 -30.40625 L 55.953125 -75.859375 C 56.078125 -77.097656 56.757812 -77.71875 58 -77.71875 Z M 58 -77.71875 "/></g></g></g></svg>